{"accessors":[{"bufferView":0,"byteOffset":0,"componentType":5126,"count":4,"max":[1,0,1],"min":[-1,0,-1],"normalized":false,"type":"VEC3"},{"bufferView":1,"byteOffset":0,"componentType":5126,"count":4,"max":[1,0,-0.000015,1],"min":[1,0,-0.000015,1],"normalized":false,"type":"VEC4"},{"bufferView":2,"byteOffset":0,"componentType":5126,"count":4,"max":[0,1,-0.000015],"min":[0,1,-0.000015],"normalized":false,"type":"VEC3"},{"bufferView":3,"byteOffset":0,"componentType":5126,"count":4,"max":[1,1],"min":[0,0],"normalized":false,"type":"VEC2"},{"bufferView":4,"byteOffset":0,"componentType":5125,"count":6,"max":[3],"min":[0],"normalized":false,"type":"SCALAR"}],"asset":{"generator":"Godot Engine v4.2.2.stable.official@15073afe3856abd2aa1622492fe50026c7d63dc1","version":"2.0"},"bufferViews":[{"buffer":0,"byteLength":48,"byteOffset":0},{"buffer":0,"byteLength":64,"byteOffset":48},{"buffer":0,"byteLength":48,"byteOffset":112},{"buffer":0,"byteLength":32,"byteOffset":160},{"buffer":0,"byteLength":24,"byteOffset":192}],"buffers":[{"byteLength":216,"uri":"ground_mesh0.bin"}],"extensions":{"OMI_collider":{"colliders":[{"size":[2.0225830078125,0.03546142578125,2.0045166015625],"type":"box"}]}},"extensionsUsed":["GODOT_single_root","OMI_collider","OMI_physics_body"],"images":[{"uri":"textures%2F_albedo000.png"}],"materials":[{"extensions":{},"pbrMetallicRoughness":{"baseColorFactor":[0.99999988079071,0.99999988079071,0.99999988079071,1],"baseColorTexture":{"index":0},"metallicFactor":0,"roughnessFactor":1}}],"meshes":[{"extras":{"targetNames":[]},"primitives":[{"attributes":{"NORMAL":2,"POSITION":0,"TANGENT":1,"TEXCOORD_0":3},"indices":4,"material":0,"mode":4}]}],"nodes":[{"children":[1],"extensions":{},"mesh":0,"name":"GroundMesh"},{"children":[2],"extensions":{"OMI_physics_body":{"type":"static"}},"name":"StaticBody3D"},{"extensions":{"OMI_collider":{"collider":0}},"name":"CollisionShape3D","translation":[0.00738525390625,-0.01101684570313,-0.00262451171875]}],"samplers":[{"magFilter":9729,"minFilter":9987,"wrapS":10497,"wrapT":10497}],"scene":0,"scenes":[{"nodes":[0]}],"textures":[{"sampler":0,"source":0}]}